<svg width="1920" height="1080" viewBox="0 0 1920 1080" fill="none" xmlns="http://www.w3.org/2000/svg">
<g clip-path="url(#clip0_1016_5277)">
<rect width="1920" height="1080" rx="60" fill="#F7F7F7"/>
<g filter="url(#filter0_f_1016_5277)">
<path d="M1374.85 815.97C1513.46 720.433 1838.98 581.755 2032.18 791.343C2273.67 1053.33 2185.67 878.411 1623.44 1047.11C1061.21 1215.8 989.61 1166.19 939.292 1246.59" stroke="#FF8707" stroke-width="93.6323"/>
</g>
<g clip-path="url(#clip1_1016_5277)">
<mask id="mask0_1016_5277" style="mask-type:alpha" maskUnits="userSpaceOnUse" x="-560" y="-442" width="2193" height="1551">
<g opacity="0.12">
<rect x="-0.576802" y="0.576802" width="109.592" height="109.592" transform="matrix(-1 0 0 1 1522.25 -109.762)" stroke="white" stroke-width="1.1536"/>
<rect x="-0.576802" y="0.576802" width="109.592" height="109.592" transform="matrix(-1 0 0 1 1412.66 -109.762)" stroke="white" stroke-width="1.1536"/>
<rect x="-0.576802" y="0.576802" width="109.592" height="109.592" transform="matrix(-1 0 0 1 1303.07 -109.762)" stroke="white" stroke-width="1.1536"/>
<rect x="-0.576802" y="0.576802" width="109.592" height="109.592" transform="matrix(-1 0 0 1 1193.48 -109.762)" stroke="white" stroke-width="1.1536"/>
<rect x="-0.576802" y="0.576802" width="109.592" height="109.592" transform="matrix(-1 0 0 1 1083.88 -109.762)" stroke="white" stroke-width="1.1536"/>
<rect x="-0.576802" y="0.576802" width="109.592" height="109.592" transform="matrix(-1 0 0 1 974.293 -109.762)" stroke="white" stroke-width="1.1536"/>
<rect x="-0.576802" y="0.576802" width="109.592" height="109.592" transform="matrix(-1 0 0 1 864.7 -109.762)" stroke="white" stroke-width="1.1536"/>
<rect x="-0.576802" y="0.576802" width="109.592" height="109.592" transform="matrix(-1 0 0 1 755.108 -109.762)" stroke="white" stroke-width="1.1536"/>
<rect x="-0.576802" y="0.576802" width="109.592" height="109.592" transform="matrix(-1 0 0 1 645.515 -109.762)" stroke="white" stroke-width="1.1536"/>
<rect x="-0.576802" y="0.576802" width="109.592" height="109.592" transform="matrix(-1 0 0 1 535.923 -109.762)" stroke="white" stroke-width="1.1536"/>
<rect x="-0.576802" y="0.576802" width="109.592" height="109.592" transform="matrix(-1 0 0 1 426.331 -109.762)" stroke="white" stroke-width="1.1536"/>
<rect x="-0.576802" y="0.576802" width="109.592" height="109.592" transform="matrix(-1 0 0 1 316.739 -109.762)" stroke="white" stroke-width="1.1536"/>
<rect x="-0.576802" y="0.576802" width="109.592" height="109.592" transform="matrix(-1 0 0 1 207.146 -109.762)" stroke="white" stroke-width="1.1536"/>
<rect x="-0.576802" y="0.576802" width="109.592" height="109.592" transform="matrix(-1 0 0 1 97.5534 -109.762)" stroke="white" stroke-width="1.1536"/>
<rect x="-0.576802" y="0.576802" width="109.592" height="109.592" transform="matrix(-1 0 0 1 1522.25 0.984375)" stroke="white" stroke-width="1.1536"/>
<rect x="-0.576802" y="0.576802" width="109.592" height="109.592" transform="matrix(-1 0 0 1 1412.66 0.984375)" stroke="white" stroke-width="1.1536"/>
<rect x="-0.576802" y="0.576802" width="109.592" height="109.592" transform="matrix(-1 0 0 1 1303.07 0.984375)" stroke="white" stroke-width="1.1536"/>
<rect x="-0.576802" y="0.576802" width="109.592" height="109.592" transform="matrix(-1 0 0 1 1193.48 0.984375)" stroke="white" stroke-width="1.1536"/>
<rect width="110.746" height="110.746" transform="matrix(-1 0 0 1 1085.04 0.984375)" fill="white" fill-opacity="0.13"/>
<rect x="-0.576802" y="0.576802" width="109.592" height="109.592" transform="matrix(-1 0 0 1 974.293 0.984375)" stroke="white" stroke-width="1.1536"/>
<rect x="-0.576802" y="0.576802" width="109.592" height="109.592" transform="matrix(-1 0 0 1 864.7 0.984375)" stroke="white" stroke-width="1.1536"/>
<rect x="-0.576802" y="0.576802" width="109.592" height="109.592" transform="matrix(-1 0 0 1 755.108 0.984375)" stroke="white" stroke-width="1.1536"/>
<rect x="-0.576802" y="0.576802" width="109.592" height="109.592" transform="matrix(-1 0 0 1 645.515 0.984375)" stroke="white" stroke-width="1.1536"/>
<rect x="-0.576802" y="0.576802" width="109.592" height="109.592" transform="matrix(-1 0 0 1 535.923 0.984375)" stroke="white" stroke-width="1.1536"/>
<rect x="-0.576802" y="0.576802" width="109.592" height="109.592" transform="matrix(-1 0 0 1 426.331 0.984375)" stroke="white" stroke-width="1.1536"/>
<rect width="110.746" height="110.746" transform="matrix(-1 0 0 1 317.893 0.984375)" fill="white" fill-opacity="0.13"/>
<rect x="-0.576802" y="0.576802" width="109.592" height="109.592" transform="matrix(-1 0 0 1 207.146 0.984375)" stroke="white" stroke-width="1.1536"/>
<rect width="110.746" height="110.746" transform="matrix(-1 0 0 1 98.707 0.984375)" fill="white" fill-opacity="0.13"/>
<rect x="-0.576802" y="0.576802" width="109.592" height="109.592" transform="matrix(-1 0 0 1 1522.25 111.73)" stroke="white" stroke-width="1.1536"/>
<rect x="-0.576802" y="0.576802" width="109.592" height="109.592" transform="matrix(-1 0 0 1 1412.66 111.73)" stroke="white" stroke-width="1.1536"/>
<rect x="-0.576802" y="0.576802" width="109.592" height="109.592" transform="matrix(-1 0 0 1 1303.07 111.73)" stroke="white" stroke-width="1.1536"/>
<rect width="110.746" height="110.746" transform="matrix(-1 0 0 1 1194.63 111.73)" fill="white" fill-opacity="0.13"/>
<rect x="-0.576802" y="0.576802" width="109.592" height="109.592" transform="matrix(-1 0 0 1 1083.88 111.73)" stroke="white" stroke-width="1.1536"/>
<rect width="110.746" height="110.746" transform="matrix(-1 0 0 1 975.446 111.73)" fill="white" fill-opacity="0.13"/>
<rect x="-0.576802" y="0.576802" width="109.592" height="109.592" transform="matrix(-1 0 0 1 864.7 111.73)" stroke="white" stroke-width="1.1536"/>
<rect x="-0.576802" y="0.576802" width="109.592" height="109.592" transform="matrix(-1 0 0 1 755.108 111.73)" stroke="white" stroke-width="1.1536"/>
<rect x="-0.576802" y="0.576802" width="109.592" height="109.592" transform="matrix(-1 0 0 1 645.515 111.73)" stroke="white" stroke-width="1.1536"/>
<rect x="-0.576802" y="0.576802" width="109.592" height="109.592" transform="matrix(-1 0 0 1 535.923 111.73)" stroke="white" stroke-width="1.1536"/>
<rect width="110.746" height="110.746" transform="matrix(-1 0 0 1 427.484 111.73)" fill="white" fill-opacity="0.13"/>
<rect x="-0.576802" y="0.576802" width="109.592" height="109.592" transform="matrix(-1 0 0 1 316.739 111.73)" stroke="white" stroke-width="1.1536"/>
<rect width="110.746" height="110.746" transform="matrix(-1 0 0 1 208.3 111.73)" fill="white" fill-opacity="0.13"/>
<rect x="-0.576802" y="0.576802" width="109.592" height="109.592" transform="matrix(-1 0 0 1 97.5534 111.73)" stroke="white" stroke-width="1.1536"/>
<rect x="-0.576802" y="0.576802" width="109.592" height="109.592" transform="matrix(-1 0 0 1 1522.25 222.475)" stroke="white" stroke-width="1.1536"/>
<rect x="-0.576802" y="0.576802" width="109.592" height="109.592" transform="matrix(-1 0 0 1 1412.66 222.475)" stroke="white" stroke-width="1.1536"/>
<rect width="110.746" height="110.746" transform="matrix(-1 0 0 1 1304.22 222.475)" fill="white" fill-opacity="0.13"/>
<rect x="-0.576802" y="0.576802" width="109.592" height="109.592" transform="matrix(-1 0 0 1 1193.48 222.475)" stroke="white" stroke-width="1.1536"/>
<rect width="110.746" height="110.746" transform="matrix(-1 0 0 1 1085.04 222.475)" fill="white" fill-opacity="0.13"/>
<rect x="-0.576802" y="0.576802" width="109.592" height="109.592" transform="matrix(-1 0 0 1 974.293 222.475)" stroke="white" stroke-width="1.1536"/>
<rect x="-0.576802" y="0.576802" width="109.592" height="109.592" transform="matrix(-1 0 0 1 864.7 222.475)" stroke="white" stroke-width="1.1536"/>
<rect x="-0.576802" y="0.576802" width="109.592" height="109.592" transform="matrix(-1 0 0 1 755.108 222.475)" stroke="white" stroke-width="1.1536"/>
<rect x="-0.576802" y="0.576802" width="109.592" height="109.592" transform="matrix(-1 0 0 1 645.515 222.475)" stroke="white" stroke-width="1.1536"/>
<rect x="-0.576802" y="0.576802" width="109.592" height="109.592" transform="matrix(-1 0 0 1 535.923 222.475)" stroke="white" stroke-width="1.1536"/>
<rect x="-0.576802" y="0.576802" width="109.592" height="109.592" transform="matrix(-1 0 0 1 426.331 222.475)" stroke="white" stroke-width="1.1536"/>
<rect width="110.746" height="110.746" transform="matrix(-1 0 0 1 317.893 222.475)" fill="white" fill-opacity="0.13"/>
<rect x="-0.576802" y="0.576802" width="109.592" height="109.592" transform="matrix(-1 0 0 1 207.146 222.475)" stroke="white" stroke-width="1.1536"/>
<rect x="-0.576802" y="0.576802" width="109.592" height="109.592" transform="matrix(-1 0 0 1 97.5534 222.475)" stroke="white" stroke-width="1.1536"/>
<rect x="-0.576802" y="0.576802" width="109.592" height="109.592" transform="matrix(-1 0 0 1 1522.25 333.221)" stroke="white" stroke-width="1.1536"/>
<rect x="-0.576802" y="0.576802" width="109.592" height="109.592" transform="matrix(-1 0 0 1 1412.66 333.221)" stroke="white" stroke-width="1.1536"/>
<rect x="-0.576802" y="0.576802" width="109.592" height="109.592" transform="matrix(-1 0 0 1 1303.07 333.221)" stroke="white" stroke-width="1.1536"/>
<rect x="-0.576802" y="0.576802" width="109.592" height="109.592" transform="matrix(-1 0 0 1 1193.48 333.221)" stroke="white" stroke-width="1.1536"/>
<rect x="-0.576802" y="0.576802" width="109.592" height="109.592" transform="matrix(-1 0 0 1 1083.88 333.221)" stroke="white" stroke-width="1.1536"/>
<rect x="-0.576802" y="0.576802" width="109.592" height="109.592" transform="matrix(-1 0 0 1 974.293 333.221)" stroke="white" stroke-width="1.1536"/>
<rect x="-0.576802" y="0.576802" width="109.592" height="109.592" transform="matrix(-1 0 0 1 864.7 333.221)" stroke="white" stroke-width="1.1536"/>
<rect x="-0.576802" y="0.576802" width="109.592" height="109.592" transform="matrix(-1 0 0 1 755.108 333.221)" stroke="white" stroke-width="1.1536"/>
<rect x="-0.576802" y="0.576802" width="109.592" height="109.592" transform="matrix(-1 0 0 1 645.515 333.221)" stroke="white" stroke-width="1.1536"/>
<rect x="-0.576802" y="0.576802" width="109.592" height="109.592" transform="matrix(-1 0 0 1 535.923 333.221)" stroke="white" stroke-width="1.1536"/>
<rect x="-0.576802" y="0.576802" width="109.592" height="109.592" transform="matrix(-1 0 0 1 426.331 333.221)" stroke="white" stroke-width="1.1536"/>
<rect x="-0.576802" y="0.576802" width="109.592" height="109.592" transform="matrix(-1 0 0 1 316.739 333.221)" stroke="white" stroke-width="1.1536"/>
<rect x="-0.576802" y="0.576802" width="109.592" height="109.592" transform="matrix(-1 0 0 1 207.146 333.221)" stroke="white" stroke-width="1.1536"/>
<rect x="-0.576802" y="0.576802" width="109.592" height="109.592" transform="matrix(-1 0 0 1 97.5534 333.221)" stroke="white" stroke-width="1.1536"/>
<rect x="-0.576802" y="0.576802" width="109.592" height="109.592" transform="matrix(-1 0 0 1 1522.25 443.967)" stroke="white" stroke-width="1.1536"/>
<rect x="-0.576802" y="0.576802" width="109.592" height="109.592" transform="matrix(-1 0 0 1 1412.66 443.967)" stroke="white" stroke-width="1.1536"/>
<rect x="-0.576802" y="0.576802" width="109.592" height="109.592" transform="matrix(-1 0 0 1 1303.07 443.967)" stroke="white" stroke-width="1.1536"/>
<rect x="-0.576802" y="0.576802" width="109.592" height="109.592" transform="matrix(-1 0 0 1 1193.48 443.967)" stroke="white" stroke-width="1.1536"/>
<rect x="-0.576802" y="0.576802" width="109.592" height="109.592" transform="matrix(-1 0 0 1 1083.88 443.967)" stroke="white" stroke-width="1.1536"/>
<rect x="-0.576802" y="0.576802" width="109.592" height="109.592" transform="matrix(-1 0 0 1 974.293 443.967)" stroke="white" stroke-width="1.1536"/>
<rect x="-0.576802" y="0.576802" width="109.592" height="109.592" transform="matrix(-1 0 0 1 864.7 443.967)" stroke="white" stroke-width="1.1536"/>
<rect x="-0.576802" y="0.576802" width="109.592" height="109.592" transform="matrix(-1 0 0 1 755.108 443.967)" stroke="white" stroke-width="1.1536"/>
<rect x="-0.576802" y="0.576802" width="109.592" height="109.592" transform="matrix(-1 0 0 1 645.515 443.967)" stroke="white" stroke-width="1.1536"/>
<rect x="-0.576802" y="0.576802" width="109.592" height="109.592" transform="matrix(-1 0 0 1 535.923 443.967)" stroke="white" stroke-width="1.1536"/>
<rect width="110.746" height="110.746" transform="matrix(-1 0 0 1 427.484 443.967)" fill="white" fill-opacity="0.13"/>
<rect x="-0.576802" y="0.576802" width="109.592" height="109.592" transform="matrix(-1 0 0 1 316.739 443.967)" stroke="white" stroke-width="1.1536"/>
<rect x="-0.576802" y="0.576802" width="109.592" height="109.592" transform="matrix(-1 0 0 1 207.146 443.967)" stroke="white" stroke-width="1.1536"/>
<rect x="-0.576802" y="0.576802" width="109.592" height="109.592" transform="matrix(-1 0 0 1 97.5534 443.967)" stroke="white" stroke-width="1.1536"/>
<rect x="-0.576802" y="0.576802" width="109.592" height="109.592" transform="matrix(-1 0 0 1 1522.25 554.713)" stroke="white" stroke-width="1.1536"/>
<rect x="-0.576802" y="0.576802" width="109.592" height="109.592" transform="matrix(-1 0 0 1 1412.66 554.713)" stroke="white" stroke-width="1.1536"/>
<rect x="-0.576802" y="0.576802" width="109.592" height="109.592" transform="matrix(-1 0 0 1 1303.07 554.713)" stroke="white" stroke-width="1.1536"/>
<rect x="-0.576802" y="0.576802" width="109.592" height="109.592" transform="matrix(-1 0 0 1 1193.48 554.713)" stroke="white" stroke-width="1.1536"/>
<rect x="-0.576802" y="0.576802" width="109.592" height="109.592" transform="matrix(-1 0 0 1 1083.88 554.713)" stroke="white" stroke-width="1.1536"/>
<rect x="-0.576802" y="0.576802" width="109.592" height="109.592" transform="matrix(-1 0 0 1 974.293 554.713)" stroke="white" stroke-width="1.1536"/>
<rect x="-0.576802" y="0.576802" width="109.592" height="109.592" transform="matrix(-1 0 0 1 864.7 554.713)" stroke="white" stroke-width="1.1536"/>
<rect x="-0.576802" y="0.576802" width="109.592" height="109.592" transform="matrix(-1 0 0 1 755.108 554.713)" stroke="white" stroke-width="1.1536"/>
<rect x="-0.576802" y="0.576802" width="109.592" height="109.592" transform="matrix(-1 0 0 1 645.515 554.713)" stroke="white" stroke-width="1.1536"/>
<rect width="110.746" height="110.746" transform="matrix(-1 0 0 1 537.076 554.713)" fill="white" fill-opacity="0.13"/>
<rect x="-0.576802" y="0.576802" width="109.592" height="109.592" transform="matrix(-1 0 0 1 426.331 554.713)" stroke="white" stroke-width="1.1536"/>
<rect width="110.746" height="110.746" transform="matrix(-1 0 0 1 317.893 554.713)" fill="white" fill-opacity="0.13"/>
<rect x="-0.576802" y="0.576802" width="109.592" height="109.592" transform="matrix(-1 0 0 1 207.146 554.713)" stroke="white" stroke-width="1.1536"/>
<rect width="110.746" height="110.746" transform="matrix(-1 0 0 1 98.707 554.713)" fill="white" fill-opacity="0.13"/>
<rect x="-0.576802" y="0.576802" width="109.592" height="109.592" transform="matrix(-1 0 0 1 1522.25 665.459)" stroke="white" stroke-width="1.1536"/>
<rect x="-0.576802" y="0.576802" width="109.592" height="109.592" transform="matrix(-1 0 0 1 1412.66 665.459)" stroke="white" stroke-width="1.1536"/>
<rect x="-0.576802" y="0.576802" width="109.592" height="109.592" transform="matrix(-1 0 0 1 1303.07 665.459)" stroke="white" stroke-width="1.1536"/>
<rect x="-0.576802" y="0.576802" width="109.592" height="109.592" transform="matrix(-1 0 0 1 1193.48 665.459)" stroke="white" stroke-width="1.1536"/>
<rect x="-0.576802" y="0.576802" width="109.592" height="109.592" transform="matrix(-1 0 0 1 1083.88 665.459)" stroke="white" stroke-width="1.1536"/>
<rect x="-0.576802" y="0.576802" width="109.592" height="109.592" transform="matrix(-1 0 0 1 974.293 665.459)" stroke="white" stroke-width="1.1536"/>
<rect x="-0.576802" y="0.576802" width="109.592" height="109.592" transform="matrix(-1 0 0 1 864.7 665.459)" stroke="white" stroke-width="1.1536"/>
<rect x="-0.576802" y="0.576802" width="109.592" height="109.592" transform="matrix(-1 0 0 1 755.108 665.459)" stroke="white" stroke-width="1.1536"/>
<rect width="110.746" height="110.746" transform="matrix(-1 0 0 1 646.669 665.459)" fill="white" fill-opacity="0.13"/>
<rect x="-0.576802" y="0.576802" width="109.592" height="109.592" transform="matrix(-1 0 0 1 535.923 665.459)" stroke="white" stroke-width="1.1536"/>
<rect width="110.746" height="110.746" transform="matrix(-1 0 0 1 427.484 665.459)" fill="white" fill-opacity="0.13"/>
<rect x="-0.576802" y="0.576802" width="109.592" height="109.592" transform="matrix(-1 0 0 1 316.739 665.459)" stroke="white" stroke-width="1.1536"/>
<rect width="110.746" height="110.746" transform="matrix(-1 0 0 1 208.3 665.459)" fill="white" fill-opacity="0.13"/>
<rect x="-0.576802" y="0.576802" width="109.592" height="109.592" transform="matrix(-1 0 0 1 97.5534 665.459)" stroke="white" stroke-width="1.1536"/>
</g>
</mask>
<g mask="url(#mask0_1016_5277)">
<g filter="url(#filter1_f_1016_5277)">
<ellipse cx="264.661" cy="190.017" rx="264.661" ry="190.017" transform="matrix(-0.827766 0.561073 0.561073 0.827766 1119.77 -120)" fill="#874B01"/>
</g>
<g filter="url(#filter2_f_1016_5277)">
<ellipse cx="252.123" cy="183.841" rx="252.123" ry="183.841" transform="matrix(-0.864756 0.502193 0.502193 0.864756 579.049 286)" fill="#874B01"/>
</g>
<g filter="url(#filter3_f_1016_5277)">
<ellipse cx="220.175" cy="157.363" rx="220.175" ry="157.363" transform="matrix(-0.965926 -0.258819 -0.258819 0.965926 481.803 126.971)" fill="#874B01"/>
</g>
</g>
</g>
</g>
<rect x="0.75" y="0.75" width="1918.5" height="1078.5" rx="59.25" stroke="url(#paint0_linear_1016_5277)" stroke-opacity="0.5" stroke-width="1.5"/>
<defs>
<filter id="filter0_f_1016_5277" x="497.538" y="232.948" width="2109.88" height="1440.55" filterUnits="userSpaceOnUse" color-interpolation-filters="sRGB">
<feFlood flood-opacity="0" result="BackgroundImageFix"/>
<feBlend mode="normal" in="SourceGraphic" in2="BackgroundImageFix" result="shape"/>
<feGaussianBlur stdDeviation="201.034" result="effect1_foregroundBlur_1016_5277"/>
</filter>
<filter id="filter1_f_1016_5277" x="707.611" y="-86.5273" width="599.395" height="544.623" filterUnits="userSpaceOnUse" color-interpolation-filters="sRGB">
<feFlood flood-opacity="0" result="BackgroundImageFix"/>
<feBlend mode="normal" in="SourceGraphic" in2="BackgroundImageFix" result="shape"/>
<feGaussianBlur stdDeviation="28" result="effect1_foregroundBlur_1016_5277"/>
</filter>
<filter id="filter2_f_1016_5277" x="160.521" y="312.348" width="585.655" height="518.488" filterUnits="userSpaceOnUse" color-interpolation-filters="sRGB">
<feFlood flood-opacity="0" result="BackgroundImageFix"/>
<feBlend mode="normal" in="SourceGraphic" in2="BackgroundImageFix" result="shape"/>
<feGaussianBlur stdDeviation="28" result="effect1_foregroundBlur_1016_5277"/>
</filter>
<filter id="filter3_f_1016_5277" x="-108.176" y="-60.3906" width="673.154" height="564.752" filterUnits="userSpaceOnUse" color-interpolation-filters="sRGB">
<feFlood flood-opacity="0" result="BackgroundImageFix"/>
<feBlend mode="normal" in="SourceGraphic" in2="BackgroundImageFix" result="shape"/>
<feGaussianBlur stdDeviation="60" result="effect1_foregroundBlur_1016_5277"/>
</filter>
<linearGradient id="paint0_linear_1016_5277" x1="28" y1="238.5" x2="1941" y2="906.5" gradientUnits="userSpaceOnUse">
<stop stop-color="#914602"/>
<stop offset="1" stop-color="#F9A64D"/>
</linearGradient>
<clipPath id="clip0_1016_5277">
<rect width="1920" height="1080" rx="60" fill="white"/>
</clipPath>
<clipPath id="clip1_1016_5277">
<rect width="1440" height="788" fill="white" transform="translate(0 -33)"/>
</clipPath>
</defs>
</svg>
